<svg xmlns="http://www.w3.org/2000/svg" viewBox="0 0 614.49 282.99"><defs><style>.cls-1{fill:#36a635;}</style></defs><title>Wordmark Green</title><g id="art"><path class="cls-1" d="M144.11,199l-19.76,20c-3.19,3.49-7.26,3.2-10.46,0L43,148.18v65.95c0,4.65-2.61,7.26-7.26,7.26H7.26c-4.64,0-7.26-2.61-7.26-7.26V7.26C0,2.61,2.62,0,7.26,0H35.74C40.39,0,43,2.61,43,7.26V75h96.17c4.65,0,7.26,2.62,7.26,7.26V111c0,4.65-2.61,7.26-7.26,7.26H73.8l70.31,70.31C147.3,191.76,147.3,195.54,144.11,199Z"/><path class="cls-1" d="M301.87,147.89c0,2.9-.29,6.1-.58,9-.58,4.65-3.49,6.69-7.84,6.69h-95.3c4.94,12.78,17.43,21.21,33.12,21.21,11.33,0,20-4.36,26.44-11.34,2.91-3.48,6.1-4.35,9.88-2l22.08,13.37c4.07,2.61,5.23,6.1,2.32,9.87-13.36,18.6-35.44,29.93-61.3,29.93-44.16,0-76.12-33.12-76.12-76.12,0-43.58,30.5-76.71,73.79-76.71C272,71.76,301.87,104.3,301.87,147.89Zm-42.42-15.4c-4.07-14-15.69-21.5-30.79-21.5-16,0-27.61,7.55-31.38,21.5Z"/><path class="cls-1" d="M445.69,129.58v84.55c0,4.65-2.61,7.26-7.26,7.26H410.82c-4.64,0-7.26-2.61-7.26-7.26V205.7c-11,13.08-24.11,18.89-40.38,18.89-32,0-53.17-18.3-53.17-45.91,0-28.76,20.92-47.06,52-47.06h41.55v-3.2c0-10.46-9.88-17.43-24.4-17.43-9.3,0-18.31,3.48-22.38,8.42-2.61,3.2-4.65,5.23-8.71,5.23h-27c-4.94,0-7.85-2.61-7-7,5.53-27.6,29.35-45.91,64.5-45.91C419,71.76,445.69,95,445.69,129.58Zm-42.13,37.48v-4.94H369c-11.63,0-16.27,6.1-16.27,14.24,0,7.55,6.1,13.66,20.91,13.66C391.65,190,403.56,180.72,403.56,167.06Z"/><path class="cls-1" d="M614.49,148.47c0,42.42-29.92,76.12-69.44,76.12-16.56,0-30.51-6.1-39.51-16.27v67.41c0,4.64-2.62,7.26-7.27,7.26H469.8c-4.65,0-7.26-2.62-7.26-7.26V82.22c0-4.64,2.61-7.26,7.26-7.26h27.6c4.65,0,7.27,2.62,7.27,7.26v8.14c9.29-11.91,23.53-18.6,39.8-18.6C583.69,71.76,614.49,105.18,614.49,148.47Zm-43,0c0-19.76-14-34.87-33.12-34.87-20.34,0-34.28,15.11-34.28,34.87,0,19.17,13.94,34.28,34.28,34.28C557.54,182.75,571.49,167.64,571.49,148.47Z"/></g></svg>